<svg width="507" height="114" viewBox="0 0 507 114" fill="none" xmlns="http://www.w3.org/2000/svg">
<g clip-path="url(#clip0_13_207)">
<path d="M113.22 43.01C113.13 41.09 113.05 39.27 113.07 37.57C113.16 29.74 109.51 22.78 103.05 18.46C96.45 14.05 87.85 12.99 79.48 15.55C72.31 17.75 64.76 20.14 55.74 23.2C48.09 25.79 39.58 29.18 36.52 37.33C33.61 45.07 34.62 53.89 34.62 62.05V83.58C34.62 91.87 34.49 100.18 34.68 108.47C34.7 109.42 34.68 111.04 35.86 111.3C44.19 113.12 54.21 116.21 62.16 111.41C62.44 111.24 62.72 111.06 62.99 110.87C65.98 108.74 67.82 105.54 68.04 102.07C68.06 101.8 68.08 101.53 68.1 101.26C68.16 100.45 68.24 99.45 68.24 98.33V93.11C69.79 92.81 71.37 92.27 72.96 91.51C75.53 90.74 77.98 89.91 80.37 89.1C81.98 88.55 83.59 88.01 85.21 87.49C96.46 83.92 104.71 76.89 109.74 66.59C113.88 58.1 113.51 49.74 113.2 43.01H113.22ZM90.18 47.28C89.37 56.47 85.55 60.88 75.6 64.12L74.77 64.39C72.78 65.04 70.78 65.69 68.76 66.35C66.71 67.02 64.55 65.64 64.54 63.64C64.53 59.26 64.51 54.89 64.49 50.53C64.49 49.3 65.33 48.2 66.6 47.79C71.83 46.11 77.05 44.42 82.28 42.72C83.58 42.3 84.89 41.87 86.21 41.45C88.33 40.76 90.55 42.28 90.41 44.35C90.34 45.34 90.27 46.32 90.18 47.29V47.28Z" fill="#FFC800"/>
<path d="M71.23 5.59C65.86 3.2 57.73 0.03 49.14 0H49.05C43.22 0 36.97 1.55 31.08 3.23C15.99 7.52 6.16003 14.99 2.65003 24.82C0.900026 29.72 0.550026 34.87 0.340026 39.73C-0.269974 53.78 0.0600256 67.99 0.380026 81.74C0.500026 87.08 0.920026 92.69 3.43003 97.51C5.68003 101.83 10.93 104.78 15.27 106.56C18.8 108.01 22.51 108.93 26.24 109.72C27.32 109.95 28.33 109.12 28.33 108.02C28.33 105.74 28.23 103.47 28.23 101.19V47.7C28.23 40.45 28.05 33.53 33.72 27.98C35.03 26.69 36.27 25.48 37.62 24.44C41.64 21.34 46.53 19.76 51.71 18.09L62.47 14.62C65.27 13.72 68.08 12.82 70.87 11.9C72.29 11.43 73.26 10.24 73.34 8.86C73.42 7.48 72.59 6.2 71.24 5.59H71.23ZM19.73 87.09C18.63 90.35 15.91 89.96 12.61 89.17C10.21 88.47 7.46003 87.42 8.64003 83.84C9.73003 80.54 12.42 81.01 15.19 81.75C18.14 82.54 20.97 83.4 19.73 87.08V87.09ZM19.73 71.84C18.63 75.1 15.91 74.71 12.61 73.92C10.21 73.22 7.46003 72.17 8.64003 68.59C9.73003 65.29 12.42 65.76 15.19 66.5C18.14 67.29 20.97 68.15 19.73 71.83V71.84ZM19.73 56.59C18.63 59.85 15.91 59.46 12.61 58.67C10.21 57.97 7.46003 56.92 8.64003 53.34C9.73003 50.04 12.42 50.51 15.19 51.25C18.14 52.04 20.97 52.9 19.73 56.58V56.59ZM19.73 41.34C18.63 44.6 15.91 44.21 12.61 43.42C10.21 42.72 7.46003 41.67 8.64003 38.09C9.73003 34.79 12.42 35.26 15.19 36C18.14 36.79 20.97 37.65 19.73 41.33V41.34Z" fill="#FFC800"/>
<path d="M165.78 50.31C165.05 48.58 164.45 47.2 163.97 46.17C163.46 45.05 162.81 43.98 162.06 43C161.23 41.91 160.12 41.02 158.78 40.33C157.4 39.63 155.71 39.27 153.75 39.27C151.79 39.27 150.13 39.63 148.76 40.33C147.41 41.02 146.3 41.93 145.47 43.05C144.72 44.06 144.01 45.32 143.36 46.81L126.74 84.76C126.11 86.16 125.65 87.28 125.36 88.1C125.04 89.02 124.88 89.93 124.88 90.81C124.88 92.51 125.65 94.03 127.16 95.32C128.65 96.59 130.4 97.24 132.36 97.24C134.7 97.24 136.46 96.56 137.59 95.22C138.48 94.16 139.48 92.27 140.65 89.45L142.85 84.13C142.96 83.87 143.24 83.69 143.55 83.69H164.03C164.34 83.69 164.62 83.86 164.73 84.13L166.93 89.32C166.93 89.32 166.94 89.35 166.95 89.36C167.33 90.19 167.78 91.15 168.31 92.23C168.9 93.44 169.46 94.33 170.01 94.96C170.62 95.66 171.39 96.22 172.3 96.62C172.91 96.89 173.59 97.08 174.34 97.17C177.05 97.5 179.83 96.49 181.54 94.58C182.58 93.42 183.1 92.13 183.1 90.74C183.1 89.35 182.46 87.28 181.16 84.47L165.77 50.31H165.78ZM158.96 72.45H148.53C148.01 72.45 147.65 71.99 147.82 71.55L152.99 58.6C153.23 58.01 154.16 58 154.4 58.6L159.66 71.55C159.84 71.99 159.48 72.46 158.95 72.46L158.96 72.45Z" fill="#FFC800"/>
<path d="M238.34 83.18L222.85 63.24C222.64 62.97 222.68 62.59 222.95 62.36L235.9 51.34C238.05 49.49 239.14 47.54 239.14 45.53C239.14 43.78 238.42 42.28 237 41.07C235.61 39.88 233.8 39.28 231.62 39.28C229.94 39.28 228.53 39.63 227.44 40.33C226.55 40.9 225.52 41.73 224.31 42.87L205.2 60.78C204.73 61.22 203.91 60.92 203.91 60.31V47.37C203.91 44.77 203.19 42.76 201.77 41.39C200.31 39.99 198.41 39.28 196.11 39.28C193.81 39.28 191.86 40.01 190.46 41.45C189.11 42.83 188.43 44.82 188.43 47.38V86.77C188.43 88.52 188.47 89.82 188.56 90.77C188.66 91.86 188.95 92.85 189.46 93.76C190.13 94.83 191.08 95.69 192.3 96.32C193.5 96.94 194.79 97.25 196.11 97.25C198.38 97.25 200.27 96.54 201.74 95.14C203.18 93.77 203.91 91.74 203.91 89.12V79.14C203.91 78.96 203.99 78.78 204.14 78.65L210.94 72.79C211.28 72.5 211.83 72.55 212.09 72.91L224.5 90.07C225.07 90.95 225.72 91.92 226.45 92.99C227.3 94.24 228.37 95.26 229.62 96.02C230.96 96.84 232.66 97.25 234.68 97.25C236.9 97.25 238.72 96.67 240.09 95.52C241.49 94.34 242.2 92.92 242.2 91.29C242.2 90 241.85 88.67 241.15 87.34C240.52 86.14 239.57 84.74 238.35 83.19L238.34 83.18Z" fill="#FFC800"/>
<path d="M286 50.31C285.27 48.58 284.67 47.2 284.19 46.17C283.68 45.05 283.03 43.98 282.28 43C281.45 41.91 280.34 41.02 279 40.33C277.62 39.63 275.93 39.27 273.97 39.27C272.01 39.27 270.35 39.63 268.98 40.33C267.63 41.02 266.52 41.93 265.69 43.05C264.94 44.06 264.23 45.32 263.58 46.81L246.96 84.76C246.33 86.16 245.87 87.28 245.58 88.1C245.26 89.02 245.1 89.93 245.1 90.81C245.1 92.51 245.87 94.03 247.38 95.32C248.87 96.59 250.62 97.24 252.58 97.24C254.92 97.24 256.68 96.56 257.81 95.22C258.7 94.16 259.7 92.27 260.87 89.45L263.07 84.13C263.18 83.87 263.46 83.69 263.77 83.69H284.25C284.56 83.69 284.84 83.86 284.95 84.13L287.15 89.32C287.15 89.32 287.16 89.35 287.17 89.36C287.55 90.19 288 91.15 288.53 92.23C289.12 93.44 289.68 94.33 290.23 94.96C290.84 95.66 291.61 96.22 292.52 96.62C293.13 96.89 293.81 97.08 294.56 97.17C297.27 97.5 300.05 96.49 301.76 94.58C302.8 93.42 303.32 92.13 303.32 90.74C303.32 89.35 302.68 87.28 301.38 84.47L285.99 50.31H286ZM279.18 72.45H268.75C268.23 72.45 267.87 71.99 268.04 71.55L273.21 58.6C273.45 58.01 274.38 58 274.62 58.6L279.88 71.55C280.06 71.99 279.7 72.46 279.17 72.46L279.18 72.45Z" fill="#FFC800"/>
<path d="M366.15 40.18H338C336.06 40.18 334.42 40.45 333.1 40.99C331.63 41.59 330.53 42.57 329.84 43.89C329.22 45.07 328.91 46.57 328.91 48.34V89.1C328.91 91.69 329.63 93.71 331.05 95.09C332.51 96.51 334.4 97.23 336.67 97.23C338.94 97.23 340.79 96.52 342.25 95.12C343.67 93.75 344.39 91.73 344.39 89.1V73.91C344.39 73.54 344.73 73.23 345.14 73.23H362.29C364.52 73.23 366.28 72.73 367.52 71.75C368.81 70.73 369.49 69.31 369.49 67.63C369.49 65.95 368.82 64.54 367.56 63.51C366.33 62.5 364.56 61.99 362.29 61.99H345.14C344.72 61.99 344.39 61.69 344.39 61.31V52.29C344.39 51.92 344.73 51.61 345.14 51.61H366.15C368.5 51.61 370.33 51.09 371.59 50.06C372.87 49.01 373.55 47.56 373.55 45.87C373.55 44.18 372.87 42.77 371.59 41.72C370.33 40.69 368.51 40.17 366.15 40.17V40.18Z" fill="#FFC800"/>
<path d="M387.06 39.27C384.81 39.27 382.93 39.99 381.49 41.42C380.09 42.8 379.38 44.8 379.38 47.37V89.11C379.38 91.68 380.1 93.68 381.51 95.08C382.97 96.51 384.83 97.24 387.06 97.24C389.29 97.24 391.27 96.52 392.72 95.1C394.14 93.72 394.86 91.7 394.86 89.11V47.37C394.86 44.77 394.14 42.76 392.72 41.39C391.26 39.99 389.36 39.28 387.06 39.28V39.27Z" fill="#FFC800"/>
<path d="M431.75 84.34H420.67C420.25 84.34 419.92 84.04 419.92 83.66V47.36C419.92 44.76 419.2 42.75 417.78 41.38C416.32 39.98 414.42 39.27 412.12 39.27C409.82 39.27 407.95 39.99 406.52 41.42C405.14 42.8 404.44 44.8 404.44 47.36V88.16C404.44 90.9 405.19 92.96 406.66 94.3C408.14 95.64 410.45 96.33 413.53 96.33H431.76C434.15 96.33 436.05 95.79 437.39 94.72C438.78 93.62 439.52 92.11 439.52 90.37C439.52 88.63 438.78 87.15 437.39 86.01C436.03 84.9 434.13 84.33 431.76 84.33L431.75 84.34Z" fill="#FFC800"/>
<path d="M503.44 41.75C501.71 40.54 499.33 39.92 496.65 39.63C492.47 39.18 486.74 39.67 484.72 43.59C484.19 44.63 483.61 46.22 482.97 48.44L476.11 71.67L469.25 48.45C468.6 46.22 468.03 44.63 467.5 43.6C465.58 39.86 458.21 39.36 454.15 39.89C449.49 40.5 445.91 43.22 445.91 47.66V89.58C445.91 92.03 446.58 93.93 447.9 95.22C449.26 96.56 451.03 97.24 453.15 97.24C455.27 97.24 457.12 96.55 458.47 95.19C459.77 93.88 460.43 91.99 460.43 89.58V65.83C460.43 65.83 466.4 87.15 466.4 87.16C466.72 88.27 467.04 89.35 467.35 90.37C467.69 91.52 468.18 92.59 468.79 93.55C469.47 94.62 470.43 95.51 471.64 96.19C472.89 96.89 474.39 97.24 476.12 97.24C478.41 97.24 480.27 96.68 481.64 95.57C482.91 94.55 483.8 93.38 484.28 92.1C484.69 91.03 485.19 89.41 485.83 87.15L491.8 65.83V89.58C491.8 92 492.47 93.89 493.79 95.2C495.15 96.55 496.91 97.24 499 97.24C501.21 97.24 503.01 96.55 504.36 95.19C505.66 93.88 506.32 91.99 506.32 89.58V47.66C506.32 44.88 505.23 43.01 503.44 41.76V41.75Z" fill="#FFC800"/>
</g>
<defs>
<clipPath id="clip0_13_207">
<rect width="506.33" height="113.97" fill="white"/>
</clipPath>
</defs>
</svg>
